<svg id="Layer_1" enable-background="new 0 0 512 512" height="512" viewBox="0 0 512 512" width="512" xmlns="http://www.w3.org/2000/svg"><g><g><path clip-rule="evenodd" d="m121.157 91.442v14.201c0 12.33 10.098 22.449 22.464 22.449h4.113 232.897 4.141c12.338 0 22.464-10.119 22.464-22.449v-14.201c0-12.359-10.126-22.449-22.464-22.449h-37.015-83.56-83.589-36.987c-12.366-.001-22.464 10.09-22.464 22.449z" fill="#ff9eb1" fill-rule="evenodd"/></g><g><path clip-rule="evenodd" d="m234.557 25.397c-28.279-41.611-81.518 10.771-53.948 43.595h83.589z" fill="#fff3da" fill-rule="evenodd"/></g><g><path clip-rule="evenodd" d="m293.809 25.397-29.612 43.595h83.56c27.57-32.824-25.64-85.206-53.948-43.595z" fill="#fff3da" fill-rule="evenodd"/></g><g><path clip-rule="evenodd" d="m305.609 221.83-41.411 39.938-41.411-39.938c-11.402-11.792-11.402-31.066 0-42.858 9.927-10.289 26.379-8.929 36.788.794 4.765 4.45 4.482 4.45 9.218 0 10.41-9.722 26.861-11.083 36.816-.794 11.374 11.791 11.374 31.066 0 42.858zm-157.875-93.738v155.7c0 13.379 10.949 24.32 24.336 24.32h184.253c13.359 0 24.308-10.941 24.308-24.32v-155.7z" fill="#fff" fill-rule="evenodd"/></g><g><path clip-rule="evenodd" d="m222.786 178.972c-11.402 11.792-11.402 31.066 0 42.858l41.411 39.938 41.411-39.938c11.374-11.792 11.374-31.066 0-42.858-9.956-10.289-26.407-8.929-36.816.794-4.737 4.45-4.453 4.45-9.218 0-10.41-9.723-26.861-11.083-36.788-.794z" fill="#ff9eb1" fill-rule="evenodd"/></g><g><path clip-rule="evenodd" d="m97.275 380.96v85.319c24.592 0 35.625.539 63.11 8.617 24.932 7.341 31.881 9.326 56.813 16.667 19.656 5.301 33.016 10.403 46.517 10.431h.199c11.686-.028 23.514-3.855 39.681-14.626l117.143-83.363c11.771-8.362 16.168-23.867 8.538-36.169-7.602-12.302-23.23-14.966-36.193-8.56l-99.586 49.321c4.198-14.371-4.141-29.507-18.493-33.759l-39.398-11.678c-32.987-9.807-64.471-12.529-95.19 5.187-10.977 6.293-16.082 12.614-35.625 12.614h-7.516z" fill="#ffdcd5" fill-rule="evenodd"/></g><g><path clip-rule="evenodd" d="m23.5 380.96v93.624c0 9.184 7.516 16.695 16.706 16.695h40.362c9.19 0 16.706-7.512 16.706-16.695v-8.305-85.319c0-9.184-7.516-16.695-16.706-16.695h-40.362c-9.19 0-16.706 7.511-16.706 16.695z" fill="#9de3d1" fill-rule="evenodd"/></g><path d="m437.783 362.579c-10.025-16.223-30.687-21.382-49.139-12.264l-85.071 42.132c-3-12.572-12.469-23.27-25.728-27.198l-39.39-11.676c-28.399-8.443-65.775-15.379-103.013 6.097-2.363 1.355-4.479 2.711-6.347 3.908-7.079 4.537-11.41 7.296-23.776 7.374-3.97-9.774-13.566-16.688-24.752-16.688h-40.36c-14.726 0-26.707 11.975-26.707 26.695v93.624c0 14.72 11.98 26.695 26.707 26.695h40.362c14.139 0 25.74-11.041 26.643-24.95 16.715.231 27.667 1.493 50.348 8.159 12.474 3.673 65.792 19.182 69.85 20.359 13.398 3.886 24.659 7.153 36.396 7.152 13.254 0 27.114-4.167 45.335-16.311.085-.057.169-.115.252-.174l117.137-83.359c16.621-11.804 21.456-33.124 11.253-49.575zm-350.508 112.005c0 3.692-3.008 6.696-6.707 6.696h-40.361c-3.698 0-6.707-3.004-6.707-6.696v-93.624c0-3.692 3.008-6.696 6.707-6.696h40.362c3.698 0 6.707 3.004 6.707 6.696v93.624zm327.665-78.727-117.019 83.274c-26.53 17.649-37.793 14.382-64.941 6.508-4.111-1.192-57.313-16.667-69.776-20.337-24.316-7.147-36.33-8.677-55.93-8.962v-65.417c16.919-.456 24.895-5.56 32.613-10.506 1.754-1.124 3.567-2.287 5.525-3.409 24.245-13.983 50.366-15.258 87.352-4.262l39.398 11.678c9.116 2.701 14.38 12.274 11.741 21.348-.005.015-.009.03-.014.044-2.664 9.076-12.258 14.3-21.391 11.656l-56.332-16.327c-5.306-1.539-10.852 1.516-12.388 6.821-1.538 5.304 1.516 10.851 6.821 12.388l56.332 16.327c18.193 5.272 37.242-3.985 44.579-20.896l96.002-47.546c7.71-3.811 18.176-3.368 23.265 4.866 4.568 7.364 2.061 17.143-5.837 22.752z"/><g><path d="m264.197 271.768c-2.503 0-5.005-.934-6.942-2.802l-41.411-39.939c-.084-.081-.166-.163-.247-.247-15.132-15.649-15.132-41.111 0-56.76 12.515-12.971 33.757-13.426 48.588-1.485 14.84-11.929 36.077-11.473 48.61 1.483 15.101 15.654 15.101 41.109.011 56.753-.083.086-.169.172-.255.255l-41.411 39.939c-1.938 1.869-4.44 2.803-6.943 2.803zm-34.331-57.002 34.331 33.11 34.325-33.105c7.463-7.867 7.426-21.043-.111-28.857-6.315-6.526-16.75-4.484-22.794 1.159l-.37.349c-2.967 2.793-6.035 5.681-11.054 5.681-5.001 0-8.076-2.877-11.05-5.661l-.395-.37c-6.042-5.642-16.463-7.69-22.766-1.158-7.69 7.955-7.727 20.86-.116 28.852z"/></g><g><path d="m93.956 226.813h-54.09c-5.523 0-10-4.477-10-10s4.477-10 10-10h54.09c5.523 0 10 4.477 10 10s-4.477 10-10 10z"/></g><g><path d="m93.978 183.277c-1.472 0-2.967-.327-4.38-1.016l-46.915-22.903c-4.963-2.423-7.022-8.41-4.599-13.373 2.422-4.963 8.408-7.022 13.374-4.599l46.915 22.903c4.963 2.423 7.022 8.41 4.599 13.373-1.734 3.55-5.292 5.615-8.994 5.615z"/></g><g><path d="m47.078 293.256c-3.703 0-7.26-2.064-8.994-5.615-2.423-4.963-.364-10.95 4.599-13.373l46.915-22.903c4.963-2.424 10.951-.364 13.374 4.599s.364 10.95-4.599 13.373l-46.915 22.903c-1.413.689-2.908 1.016-4.38 1.016z"/></g><g><path d="m488.5 226.813h-54.09c-5.522 0-10-4.477-10-10s4.478-10 10-10h54.09c5.522 0 10 4.477 10 10s-4.478 10-10 10z"/></g><g><path d="m434.418 183.277c-3.702 0-7.259-2.063-8.993-5.613-2.424-4.962-.366-10.95 4.596-13.374l46.886-22.903c4.966-2.424 10.95-.366 13.375 4.596 2.424 4.962.366 10.95-4.596 13.374l-46.886 22.902c-1.413.69-2.909 1.018-4.382 1.018z"/></g><g><path d="m481.288 293.256c-1.473 0-2.969-.327-4.382-1.017l-46.886-22.903c-4.962-2.424-7.02-8.412-4.596-13.374 2.424-4.961 8.41-7.02 13.375-4.596l46.886 22.903c4.962 2.424 7.02 8.412 4.596 13.374-1.734 3.549-5.292 5.613-8.993 5.613z"/></g><g><path d="m384.772 58.993h-20.714c2.373-8.845 1.765-18.395-2.003-27.765-6.748-16.781-22.258-29.241-38.594-31.004-14.788-1.594-28.258 5.345-37.925 19.554l-21.344 31.423-21.366-31.425c-9.651-14.201-23.108-21.142-37.899-19.554-16.342 1.759-31.859 14.219-38.613 31.007-3.769 9.369-4.378 18.919-2.006 27.763h-20.687c-17.901 0-32.464 14.556-32.464 32.449v14.201c0 15.882 11.479 29.127 26.577 31.904v146.245c0 18.924 15.403 34.32 34.336 34.32h184.252c18.918 0 34.309-15.396 34.309-34.32v-146.24c15.113-2.766 26.605-16.017 26.605-31.909v-14.2c.001-17.893-14.562-32.449-32.464-32.449zm-82.694-27.972c5.462-8.029 11.942-11.704 19.237-10.913 9.056.977 18.178 8.618 22.185 18.581 1.752 4.356 3.669 12.311-.901 20.303h-59.52zm-117.208 7.674c4.011-9.969 13.139-17.612 22.199-18.587 7.296-.788 13.764 2.886 19.219 10.912l19.019 27.973h-59.538c-4.569-7.99-2.652-15.943-.899-20.298zm212.367 66.948c0 6.865-5.592 12.449-12.465 12.449h-120.575c-5.522 0-10 4.477-10 10s4.478 10 10 10h106.435v145.701c0 7.896-6.419 14.32-14.309 14.32h-184.252c-7.905 0-14.336-6.424-14.336-14.32v-145.701h15.131c5.523 0 10-4.477 10-10s-4.477-10-10-10h-29.244c-6.873 0-12.464-5.585-12.464-12.449v-14.201c0-6.865 5.591-12.449 12.464-12.449h241.151c6.873 0 12.465 5.585 12.465 12.449v14.201z"/><path d="m217.793 118.092h-.028c-5.523 0-9.986 4.477-9.986 10s4.491 10 10.014 10 10-4.477 10-10-4.477-10-10-10z"/></g></g></svg>