<svg id="Capa_1" enable-background="new 0 0 512.039 512.039" height="512" viewBox="0 0 512.039 512.039" width="512" xmlns="http://www.w3.org/2000/svg"><g><path d="m202.681 119.017-24.452 56.846h-136.68v199.359h161.132zm-93.031 217.756h-30v-30h30z"/><path d="m410.896 248.57c-55.771 0-101.143 45.372-101.143 101.143s45.372 101.143 101.143 101.143 101.143-45.372 101.143-101.143-45.372-101.143-101.143-101.143zm-16.059 150.325-47.918-47.918 21.213-21.213 26.705 26.705 56.516-56.516 21.213 21.213z"/><path d="m194.899 61.184h-158.473l-36.426 84.678h158.475z"/><path d="m393.813 219.683v-43.82h-136.68l-24.453-56.847v256.207h49.572c-1.634-8.254-2.499-16.782-2.499-25.509.001-66.525 49.79-121.634 114.06-130.031z"/><path d="m240.462 61.184 36.426 84.678h158.473l-36.424-84.678z"/></g></svg>