<svg id="Layer_1" enable-background="new 0 0 512.654 512.654" height="512" viewBox="0 0 512.654 512.654" width="512" xmlns="http://www.w3.org/2000/svg"><g><g><path d="m333.318 284.336c-.239 0-.479-.003-.722-.01-12.283-.331-20.834-7.984-27.078-13.573-2.905-2.6-6.188-5.538-8.223-6.191-1.237-.032-4.565.95-6.768 1.604-7.284 2.163-18.29 5.432-28.875-1.065-10.473-6.428-14.051-17.331-16.664-25.292-1.215-3.705-2.589-7.89-4.024-9.474-1.084-.66-4.429-1.46-6.664-1.995-7.389-1.769-18.556-4.44-24.474-15.36-5.855-10.802-3.503-22.035-1.784-30.236.799-3.816 1.702-8.127 1.25-10.217-.608-1.114-3.104-3.479-4.772-5.059-5.516-5.226-13.85-13.123-13.516-25.539.33-12.283 7.984-20.834 13.573-27.078 2.6-2.904 5.537-6.186 6.191-8.221.029-1.27-.95-4.566-1.604-6.769-2.164-7.283-5.433-18.29 1.064-28.875 6.427-10.472 17.331-14.051 25.292-16.664 3.705-1.216 7.891-2.59 9.474-4.025.66-1.083 1.461-4.429 1.996-6.664 1.768-7.389 4.439-18.555 15.359-24.474 10.803-5.855 22.033-3.502 30.236-1.785 3.813.799 8.127 1.701 10.217 1.251 1.113-.609 3.479-3.105 5.06-4.773 5.227-5.515 13.12-13.844 25.538-13.515h.001c12.283.331 20.834 7.984 27.077 13.573 2.905 2.6 6.188 5.538 8.223 6.191 1.266.054 4.566-.95 6.769-1.604 7.282-2.163 18.29-5.433 28.875 1.065 10.472 6.427 14.051 17.331 16.664 25.292 1.216 3.705 2.589 7.89 4.025 9.473 1.084.66 4.428 1.46 6.663 1.996 7.389 1.768 18.554 4.44 24.473 15.359 5.855 10.803 3.503 22.035 1.785 30.236-.8 3.816-1.702 8.129-1.25 10.218.608 1.114 3.104 3.479 4.772 5.06 5.515 5.226 13.849 13.123 13.515 25.539-.33 12.283-7.983 20.834-13.572 27.078-2.601 2.905-5.538 6.188-6.191 8.223-.03 1.269.949 4.565 1.604 6.769 2.163 7.283 5.433 18.289-1.064 28.875-6.429 10.472-17.332 14.051-25.293 16.664-3.704 1.216-7.89 2.589-9.474 4.025-.66 1.084-1.46 4.428-1.995 6.663-1.769 7.389-4.44 18.555-15.36 24.474-10.802 5.854-22.035 3.501-30.235 1.785-3.817-.8-8.128-1.702-10.218-1.251-1.113.609-3.479 3.105-5.06 4.773-5.122 5.405-12.815 13.522-24.816 13.523zm35.549-264.187h.01z" fill="#ff4a4a"/></g><path d="m474.994 142.734c.334-12.416-8-20.313-13.515-25.539-1.668-1.581-4.164-3.946-4.772-5.06-.452-2.089.45-6.402 1.25-10.218 1.718-8.201 4.07-19.433-1.785-30.236-5.919-10.919-17.084-13.591-24.473-15.359-2.235-.535-5.579-1.335-6.663-1.996-1.437-1.583-2.81-5.769-4.025-9.473-2.613-7.961-6.192-18.865-16.664-25.292-10.585-6.498-21.593-3.229-28.875-1.065-2.202.654-5.503 1.658-6.769 1.604-2.035-.654-5.317-3.591-8.223-6.191-6.243-5.589-14.794-13.243-27.077-13.573 0 0 0 0-.001 0-.643-.017-1.266.003-1.885.031v283.89c.36.023.713.06 1.079.07.242.006.482.01.722.01 12.001 0 19.693-8.118 24.816-13.525 1.581-1.668 3.946-4.165 5.06-4.773 2.09-.451 6.4.451 10.218 1.251 8.2 1.717 19.434 4.07 30.235-1.785 10.92-5.919 13.592-17.085 15.36-24.474.535-2.235 1.335-5.579 1.995-6.663 1.584-1.436 5.77-2.81 9.474-4.025 7.961-2.613 18.864-6.191 25.293-16.664 6.497-10.585 3.228-21.592 1.064-28.875-.654-2.203-1.634-5.5-1.604-6.769.653-2.035 3.591-5.317 6.191-8.223 5.591-6.244 13.244-14.795 13.574-27.078z" fill="#d01273"/><g><path d="m309.986 197.17c-2.545 0-5.124-.648-7.486-2.012-7.174-4.142-9.633-13.316-5.49-20.49l46-79.674c4.143-7.175 13.315-9.634 20.49-5.49 7.174 4.142 9.633 13.316 5.49 20.49l-46 79.674c-2.778 4.812-7.82 7.502-13.004 7.502z" fill="#fae77d"/></g><g><path clip-rule="evenodd" d="m304.368 91.838c7.174 4.142 9.632 13.316 5.49 20.49s-13.316 9.632-20.49 5.49-9.633-13.316-5.49-20.491c4.142-7.173 13.316-9.632 20.49-5.489z" fill="#fae77d" fill-rule="evenodd"/></g><g><ellipse clip-rule="evenodd" cx="372.132" cy="174.333" fill="#facf23" fill-rule="evenodd" rx="15" ry="15" transform="matrix(.946 -.325 .325 .946 -36.474 130.569)"/></g><path clip-rule="evenodd" d="m511.647 358.651-.303-.524c-22.892-39.644-73.111-53.724-114.326-32.058l-94.34 48.985c2.476-13.363-2.199-27.889-17.862-36.932l-61.896-35.735c-6.02-4.378-13.413-6.969-21.382-6.969l-134.023.731v140.991h61.08l118.794 68.726c7.442 4.305 15.159 6.463 22.605 6.463 6.992 0 13.747-1.902 19.813-5.715l219.337-137.859c3.416-2.148 4.522-6.611 2.503-10.104z" fill="#ffe4c1" fill-rule="evenodd"/><path d=""/><path d="m300.721 423.702c20.143-11.629 33.158-34.173 33.158-57.432 0-2.45-.154-4.864-.442-7.24l-30.717 15.949c-2.455 9.38-8.672 17.934-16.999 22.742-6.662 3.847-17.465 6.772-31.177-1.032l-54.4-34.562c-6.991-4.442-16.262-2.375-20.705 4.617-4.442 6.993-2.375 16.263 4.617 20.705l54.686 34.743c.179.114.36.224.544.33 10.446 6.031 21.485 9.054 32.325 9.054 10.092 0 20.011-2.621 29.11-7.874z" fill="#fdd1a3"/><g><path d="m101.021 488.117h-86.021c-8.284 0-15-6.716-15-15v-208.872c0-8.284 6.716-15 15-15h86.021c8.284 0 15 6.716 15 15v208.873c0 8.284-6.715 14.999-15 14.999z" fill="#454040"/></g><path clip-rule="evenodd" d="m511.647 358.651-.303-.524c-22.892-39.644-73.111-53.724-114.326-32.058l-65.501 34.01v120.318l177.627-111.643c3.416-2.147 4.522-6.61 2.503-10.103z" fill="#fdd1a3" fill-rule="evenodd"/><path d="m363.5 89.503c-7.175-4.144-16.348-1.685-20.49 5.49l-11.492 19.906v60l37.473-64.905c4.142-7.175 1.683-16.349-5.491-20.491z" fill="#facf23"/></g></svg>